<svg width="21" height="21" viewBox="0 0 21 21" fill="none" xmlns="http://www.w3.org/2000/svg">
<path d="M18.375 14V7C18.3747 6.69311 18.2937 6.39171 18.1401 6.12602C17.9865 5.86032 17.7658 5.63969 17.5 5.48625L11.375 1.98625C11.109 1.83265 10.8072 1.75179 10.5 1.75179C10.1928 1.75179 9.89103 1.83265 9.625 1.98625L3.5 5.48625C3.23423 5.63969 3.01348 5.86032 2.8599 6.12602C2.70632 6.39171 2.62531 6.69311 2.625 7V14C2.62531 14.3069 2.70632 14.6083 2.8599 14.874C3.01348 15.1397 3.23423 15.3603 3.5 15.5137L9.625 19.0137C9.89103 19.1673 10.1928 19.2482 10.5 19.2482C10.8072 19.2482 11.109 19.1673 11.375 19.0137L17.5 15.5137C17.7658 15.3603 17.9865 15.1397 18.1401 14.874C18.2937 14.6083 18.3747 14.3069 18.375 14Z" stroke="white" stroke-width="2" stroke-linecap="round" stroke-linejoin="round"/>
<path d="M2.86124 6.09L10.5 10.5087L18.1387 6.09" stroke="white" stroke-width="2" stroke-linecap="round" stroke-linejoin="round"/>
<path d="M10.5 19.32V10.5" stroke="white" stroke-width="2" stroke-linecap="round" stroke-linejoin="round"/>
</svg>
