<svg width="25" height="24" viewBox="0 0 25 24" fill="none" xmlns="http://www.w3.org/2000/svg">
<path d="M8.98096 4V16C8.98096 16.5304 9.19167 17.0391 9.56674 17.4142C9.94182 17.7893 10.4505 18 10.981 18H18.981C19.5114 18 20.0201 17.7893 20.3952 17.4142C20.7702 17.0391 20.981 16.5304 20.981 16V7.242C20.9809 6.97556 20.9277 6.71181 20.8243 6.46624C20.7209 6.22068 20.5695 5.99824 20.379 5.812L17.064 2.57C16.6903 2.20466 16.1885 2.00007 15.666 2H10.981C10.4505 2 9.94182 2.21071 9.56674 2.58579C9.19167 2.96086 8.98096 3.46957 8.98096 4V4Z" stroke="#885FFF" stroke-width="2" stroke-linecap="round" stroke-linejoin="round"/>
<path d="M16.981 18V20C16.981 20.5304 16.7702 21.0391 16.3952 21.4142C16.0201 21.7893 15.5114 22 14.981 22H6.98096C6.45052 22 5.94182 21.7893 5.56674 21.4142C5.19167 21.0391 4.98096 20.5304 4.98096 20V9C4.98096 8.46957 5.19167 7.96086 5.56674 7.58579C5.94182 7.21071 6.45052 7 6.98096 7H8.98096" stroke="#885FFF" stroke-width="2" stroke-linecap="round" stroke-linejoin="round"/>
</svg>
