<svg width="21" height="21" viewBox="0 0 21 21" fill="none" xmlns="http://www.w3.org/2000/svg">
<path d="M3.47987 8.61C3.51507 8.17145 3.71416 7.76226 4.03749 7.4639C4.36082 7.16554 4.78467 6.99991 5.22462 7H15.7754C16.2153 6.99991 16.6392 7.16554 16.9625 7.4639C17.2858 7.76226 17.4849 8.17145 17.5201 8.61L18.2227 17.36C18.2421 17.6008 18.2113 17.843 18.1325 18.0713C18.0536 18.2996 17.9283 18.5092 17.7645 18.6867C17.6007 18.8643 17.4019 19.006 17.1806 19.1029C16.9594 19.1998 16.7204 19.2499 16.4789 19.25H4.52112C4.27955 19.2499 4.04062 19.1998 3.81935 19.1029C3.59809 19.006 3.39929 18.8643 3.23548 18.6867C3.07167 18.5092 2.94638 18.2996 2.86752 18.0713C2.78866 17.843 2.75792 17.6008 2.77725 17.36L3.47987 8.61V8.61Z" stroke="white" stroke-width="2" stroke-linecap="round" stroke-linejoin="round"/>
<path d="M14 9.625V5.25C14 4.32174 13.6313 3.4315 12.9749 2.77513C12.3185 2.11875 11.4283 1.75 10.5 1.75C9.57174 1.75 8.6815 2.11875 8.02513 2.77513C7.36875 3.4315 7 4.32174 7 5.25V9.625" stroke="white" stroke-width="2" stroke-linecap="round" stroke-linejoin="round"/>
</svg>
